<svg xmlns="http://www.w3.org/2000/svg" xmlns:xlink="http://www.w3.org/1999/xlink" viewBox="0 0 500 500">
<g>
	<g>
		<g>
			<circle fill="#DDC885" cx="250" cy="250.008" r="250"/>
		</g>
	</g>
	<g>
		<g>
			<path fill="#CC3432" d="M286.3,409.936l-35.42-25.18l80.858,57.478c0.746,0.541,1.642,0.817,2.546,0.817
				c0.687,0,1.382-0.162,2.021-0.493c1.457-0.746,2.376-2.258,2.384-3.908l-0.008-422.41C321.996,9.908,304.474,5.301,286.3,2.657
				L286.3,409.936L286.3,409.936z"/>
		</g>
		<g>
			<path fill="#CC3432" d="M165.467,442.558c1.457,0.754,3.221,0.632,4.563-0.324l43.915-31.216V2.625
				c-17.617,2.546-34.638,6.908-50.862,12.92V438.65C163.086,440.3,164.01,441.8,165.467,442.558z"/>
		</g>
		<g>
			<path fill="#B42928" d="M213.945,411.018l36.94-26.262L213.945,411.018z"/>
		</g>
		<g>
			<path fill="#B42928" d="M286.3,2.653C274.45,0.924,262.332,0,249.996,0c-12.245,0-24.276,0.916-36.051,2.621v408.393
				l36.936-26.258l35.42,25.18V2.653z"/>
		</g>
	</g>
	<g>
		<path fill="#DDA027" d="M315.199,216.352c-0.355-1.101-1.295-1.903-2.443-2.072l-40.863-5.937l-18.288-37.038
			c-1.011-2.064-4.417-2.064-5.443,0.008l-18.28,37.03l-40.863,5.937c-1.141,0.17-2.088,0.971-2.443,2.064
			c-0.363,1.101-0.071,2.305,0.754,3.115l29.582,28.82l-6.987,40.709c-0.193,1.133,0.268,2.289,1.212,2.976
			c0.932,0.671,2.175,0.762,3.201,0.225l36.545-19.22l36.561,19.22c0.446,0.233,0.924,0.347,1.409,0.347
			c0.616,0,1.247-0.193,1.78-0.576c0.939-0.679,1.401-1.828,1.204-2.968l-6.979-40.702l29.574-28.828
			C315.258,218.658,315.554,217.454,315.199,216.352z"/>
	</g>
</g>
</svg>
