<svg version="1.1" id="Layer_1" xmlns="http://www.w3.org/2000/svg" xmlns:xlink="http://www.w3.org/1999/xlink" x="0px" y="0px"
	 width="100px" height="100px" viewBox="0 0 100 100" enable-background="new 0 0 100 100" xml:space="preserve">
<g>
	<g>
		<g>
			<g>
				<g>
					<circle fill="#48A1AF" cx="50" cy="50.001" r="50"/>
				</g>
			</g>
		</g>
	</g>
	<path fill="#17474C" d="M68.215,81.013c0,4.673-3.449,8.462-7.705,8.462H39.488c-4.254,0-7.703-3.789-7.703-8.462
		c0,0,1.764-18.331,3.209-22.916c1.445-4.58,3.449-8.46,7.705-8.46H45.3h9.875h2.769c4.254,0,6.579,2.819,7.703,8.46
		C66.77,63.739,68.215,81.013,68.215,81.013z"/>
	<path fill="#0E2C2D" d="M50.17,89.499l-10.682-0.024c-4.254,0-7.703-3.789-7.703-8.462c0,0,1.764-18.331,3.209-22.916
		c1.445-4.58,3.449-8.46,7.705-8.46H45.3l4.736-0.045L50.17,89.499z"/>
	<g>
		<g>
			<g>
				<path fill="#E9C29C" d="M68.215,81.013c0,4.673-3.449,8.462-7.705,8.462l-1.132-8.458L68.215,81.013z"/>
				<path fill="#29636D" d="M68.215,81.013l-8.828,0.002l-4.212-31.378h2.769c4.254,0,6.579,2.819,7.703,8.46
					C66.77,63.739,68.215,81.013,68.215,81.013z"/>
				<path fill="#E9C29C" d="M39.488,89.474c-4.254,0-7.703-3.789-7.703-8.462l9.294,0.026L39.488,89.474z"/>
				<path fill="#29636D" d="M31.785,81.013c0,0,1.764-18.331,3.209-22.916c1.445-4.58,3.449-8.46,7.705-8.46l2.601-0.01
					l-4.22,31.412L31.785,81.013z"/>
				<g>
					<g>
						<polygon fill="#FFFFFF" points="45.127,80.656 48.636,52.895 49.597,51.664 50.116,51.637 51.364,52.895 54.874,80.656 
							49.813,84.948 						"/>
					</g>
					<g>
						<g>
							<polygon fill="#8DD3D5" points="47.67,60.538 51.893,57.081 51.707,55.617 47.898,58.734 							"/>
						</g>
						<g>
							<polygon fill="#8DD3D5" points="47.025,65.641 52.417,61.227 52.231,59.762 47.254,63.837 							"/>
						</g>
						<g>
							<polygon fill="#8DD3D5" points="46.38,70.741 52.942,65.371 52.756,63.905 46.609,68.938 							"/>
						</g>
						<g>
							<polygon fill="#8DD3D5" points="45.735,75.844 53.466,69.515 53.28,68.051 45.963,74.039 							"/>
						</g>
						<g>
							<polygon fill="#8DD3D5" points="45.127,80.656 45.312,80.763 53.988,73.662 53.804,72.196 45.318,79.14 							"/>
						</g>
						<g>
							<polygon fill="#8DD3D5" points="47.924,83.224 54.515,77.806 54.328,76.341 46.964,82.356 							"/>
						</g>
					</g>
					<g>
						<ellipse fill="#6FC5BC" cx="49.946" cy="52.218" rx="2.274" ry="2.304"/>
					</g>
				</g>
				<g>
					<g>
						<circle fill="#E9C29C" cx="50" cy="32.698" r="14.765"/>
					</g>
					<g>
						<path fill="#492A15" d="M64.765,32.698l-10.067-9.059c0,0-2.144,3.55-7.861,6.137c-5.513,2.492-11.601,2.923-11.601,2.923
							c0-8.154,6.609-14.764,14.764-14.764C58.155,17.934,64.765,24.544,64.765,32.698z"/>
					</g>
					<g>
						<ellipse fill="#343433" cx="45.575" cy="34.892" rx="2.023" ry="2.137"/>
					</g>
					<g>
						<ellipse fill="#343433" cx="54.341" cy="34.892" rx="2.023" ry="2.137"/>
					</g>
					<g>
						<ellipse fill="#FFFFFF" cx="54.973" cy="34.082" rx="0.808" ry="0.854"/>
					</g>
					<g>
						<ellipse fill="#FFFFFF" cx="46.185" cy="34.082" rx="0.809" ry="0.854"/>
					</g>
				</g>
				<g>
					<path fill="#492A15" d="M43.36,39.455c0,0,0.294-0.412,0.124-0.784c-0.479-1.045-2.074-0.263-1.966,1.161
						c0,0,0.107,2.957,4.318,3.096c1.097,0.037,2.587-0.201,3.779-1.517c0.823-0.909,0.599-2.582-0.457-2.97
						c-1.138-0.419-2.6-0.116-3.692,1.547c-1.037,1.579-3.083,0.481-3.05-0.573C42.446,38.439,43.576,38.821,43.36,39.455z"/>
					<path fill="#492A15" d="M56.64,39.455c0,0-0.294-0.412-0.124-0.784c0.479-1.045,2.075-0.263,1.966,1.161
						c0,0-0.107,2.957-4.318,3.096c-1.097,0.037-2.586-0.201-3.778-1.517c-0.823-0.909-0.599-2.582,0.457-2.97
						c1.138-0.419,2.6-0.116,3.692,1.547c1.037,1.579,3.083,0.481,3.05-0.573C57.554,38.439,56.423,38.821,56.64,39.455z"/>
				</g>
			</g>
		</g>
		<g>
			<g>
				<path fill="#E0B500" d="M61.957,27.414c0,0,3.943-17.03-11.954-17.03c-15.897,0-11.952,17.03-11.952,17.03H61.957z"/>
				<path fill="#EDC92C" d="M49.932,27.414l0.072-17.03c-15.897,0-11.952,17.03-11.952,17.03H49.932z"/>
				<path fill="#EDC92C" d="M53.27,26.473c0,0,1.077-16.519-3.266-16.519c-4.343,0-3.265,16.519-3.265,16.519H53.27z"/>
				<path fill="#EFD050" d="M49.932,26.473l0.072-16.519c-4.343,0-3.265,16.519-3.265,16.519H49.932z"/>
				<path fill="#DBB626" d="M65.731,26.002c0,2.381-7.043,3.478-15.731,3.478s-15.731-1.098-15.731-3.478S41.312,25.34,50,25.34
					S65.731,23.621,65.731,26.002z"/>
			</g>
		</g>
	</g>
</g>
</svg>
