<svg xmlns="http://www.w3.org/2000/svg" xmlns:xlink="http://www.w3.org/1999/xlink" viewBox="0 0 100 100">
<g>
	<g>
		<path fill="#E84849" d="M0,49.999C0,22.385,22.385,0,50,0s50,22.385,50,49.999c0,27.616-22.385,50-50,50S0,77.615,0,49.999z"/>
	</g>
	<g>
		<path fill="none" d="M0,49.999C0,22.385,22.385,0,50,0s50,22.385,50,49.999c0,27.616-22.385,50-50,50S0,77.615,0,49.999z"/>
	</g>
	<g>
		<g>
			<g>
				<g>
					<path fill="#E79E2D" d="M59.874,56.383l16.219-16.22c4.186-4.185-0.016-6.77-4.203-10.955L15.205,85.89
						c2.283,2.213,4.775,4.21,7.446,5.959l27.701-33.257C53.62,59.701,57.126,59.133,59.874,56.383z"/>
				</g>
			</g>
			<g>
				<g>
					<path fill="#D68A28" d="M15.205,85.89L71.89,29.207c-4.184-4.185-6.77-8.388-10.955-4.202l-16.218,16.22
						c-2.749,2.748-3.318,6.252-2.21,9.523L8.932,78.507C10.783,81.169,12.886,83.641,15.205,85.89z"/>
				</g>
			</g>
		</g>
		<g>
			<path fill="#CDCCCB" d="M72.452,28.648c-4.186-4.187-7.331-7.828-11.517-3.642L44.717,41.225
				c-1.975,1.975,13.18,17.134,15.158,15.157l16.218-16.22C80.279,35.977,76.637,32.832,72.452,28.648z"/>
		</g>
		<g>
			<path fill="#AAAAAA" d="M72.452,28.648c-4.186-4.187-7.331-7.828-11.517-3.642L44.717,41.225
				c-0.989,0.987,2.308,5.271,6.096,9.06L72.452,28.648z"/>
		</g>
		<g>
			<path fill="#B2B2B2" d="M45.732,55.615c-2.775-2.775-3.761-6.29-3.761-6.29l-8.679,8.856c-1.068,1.066,8.6,10.652,9.668,9.584
				l8.761-8.761C51.722,59.004,48.509,58.391,45.732,55.615z"/>
		</g>
		<g>
			<path fill="#8D9091" d="M45.583,55.466c-2.656-2.747-3.61-6.142-3.61-6.142l-8.68,8.857c-0.534,0.534,1.479,3.141,3.992,5.654
				L45.583,55.466z"/>
		</g>
		<g>
			<path fill="#3D4040" d="M65.012,15.634L51.44,34.5c-1.975,1.975,13.182,17.134,15.158,15.159l18.868-13.575
				C89.648,31.901,69.199,11.449,65.012,15.634z"/>
		</g>
		<g>
			<path fill="#343433" d="M65.012,15.634L51.44,34.5c-0.972,0.972,2.2,5.132,5.911,8.874L78.38,22.724
				C73.266,17.611,67.106,13.542,65.012,15.634z"/>
		</g>
		<g>
			<path fill="#1D1E1E" d="M55.456,37.276c-0.167,0-0.335-0.053-0.477-0.162c-0.343-0.263-0.407-0.755-0.144-1.098l13.54-17.652
				c0.262-0.344,0.755-0.408,1.097-0.146c0.344,0.263,0.408,0.755,0.146,1.099L56.078,36.97
				C55.923,37.171,55.691,37.276,55.456,37.276z"/>
		</g>
		<g>
			<path fill="#2E2F2F" d="M64.887,46.706c-0.236,0-0.469-0.106-0.621-0.307c-0.263-0.343-0.199-0.835,0.144-1.099l17.651-13.54
				c0.344-0.263,0.835-0.198,1.099,0.145c0.263,0.343,0.199,0.835-0.144,1.099L65.364,46.543
				C65.222,46.653,65.054,46.706,64.887,46.706z"/>
		</g>
		<g>
			<path fill="#2E2F2F" d="M61.711,43.532c-0.212,0-0.424-0.086-0.578-0.255c-0.292-0.32-0.27-0.815,0.05-1.107l17.091-15.595
				c0.32-0.292,0.816-0.269,1.106,0.051c0.292,0.319,0.27,0.815-0.05,1.106L62.239,43.327C62.09,43.464,61.899,43.532,61.711,43.532
				z"/>
		</g>
		<g>
			<path fill="#1D1E1E" d="M58.445,40.264c-0.188,0-0.378-0.068-0.528-0.205c-0.32-0.292-0.343-0.788-0.05-1.106l15.594-17.091
				c0.291-0.319,0.788-0.342,1.106-0.051c0.32,0.292,0.343,0.788,0.05,1.107L59.023,40.009
				C58.869,40.177,58.658,40.264,58.445,40.264z"/>
		</g>
	</g>
	<g>
		<path fill="none" d="M0,49.999C0,22.385,22.385,0,50,0s50,22.385,50,49.999c0,27.616-22.385,50-50,50S0,77.615,0,49.999z"/>
	</g>
</g>
</svg>
