<svg version="1.1" id="Layer_1" xmlns="http://www.w3.org/2000/svg" xmlns:xlink="http://www.w3.org/1999/xlink" viewBox="0 0 100 100">
<g>
	<g>
		<g>
			<g>
				<g>
					<g>
						<g>
							<g>
								<g>
									<circle fill="#D8DBBA" cx="50" cy="50.001" r="50"/>
								</g>
							</g>
						</g>
					</g>
				</g>
			</g>
		</g>
	</g>
	<g>
		<g>
			<g>
				<rect x="36.161" y="62.59" fill="#4094D3" width="12.432" height="25.714"/>
				<rect x="36.161" y="67.643" fill="#3786B7" width="12.432" height="1.256"/>
				<rect x="36.161" y="83.777" fill="#3786B7" width="12.432" height="4.527"/>
			</g>
			<g>
				<rect x="51.374" y="62.59" fill="#4094D3" width="12.432" height="25.714"/>
				<rect x="51.374" y="62.59" fill="#4BA6DD" width="12.432" height="6.31"/>
				<rect x="36.213" y="62.59" fill="#4BA6DD" width="12.432" height="6.31"/>
				<rect x="36.161" y="67.643" fill="#3786B7" width="12.432" height="1.256"/>
				<rect x="51.374" y="67.643" fill="#3786B7" width="12.432" height="1.256"/>
				<rect x="51.374" y="83.777" fill="#3786B7" width="12.432" height="4.527"/>
			</g>
			<rect x="48.593" y="62.59" fill="#5CB7E5" width="2.748" height="6.31"/>
			<rect x="36.096" y="59.477" fill="#5CB7E5" width="27.743" height="3.112"/>
			<path fill="#CA261D" d="M36.096,59.456h27.743c0,0-0.397-25.897-2.963-25.897c-2.567,0-19.678,0-21.816,0
				C36.92,33.559,36.096,59.456,36.096,59.456z"/>
			<path fill="#E24844" d="M38.78,33.8h22.376c0,0-1.272-2.582-3.161-2.582c-1.889,0-14.48,0-16.054,0
				C40.367,31.218,38.78,33.8,38.78,33.8z"/>
			<g>
				<rect x="65.671" y="55.392" fill="#ECBF30" width="4.907" height="3.533"/>
				<path fill="#BA1713" d="M61.941,35.566c0,0,2.592-0.981,3.671,0.196c1.079,1.178,5.359,11.974,5.751,14.33
					c0.393,2.355-0.196,5.889-0.196,6.478l-6.478-0.196l-0.589-4.907l-1.178-4.515L61.941,35.566z"/>
				<g>
					<path fill="#ECBF30" d="M72.083,61.673c0-2.168-1.758-3.926-3.926-3.926s-3.926,1.758-3.926,3.926
						c0,1.332,0.665,2.507,1.679,3.217c0,0,0.998-1.528,0.855-1.655c-0.43-0.383-0.702-0.94-0.702-1.561
						c0-1.156,0.937-2.094,2.094-2.094c1.156,0,2.094,0.937,2.094,2.094c0,0.53-0.197,1.013-0.521,1.382
						c-0.12,0.136,0.899,1.667,0.899,1.667C71.516,64.002,72.083,62.905,72.083,61.673z"/>
				</g>
			</g>
			<g>
				<rect x="29.422" y="55.392" fill="#ECBF30" width="4.907" height="3.533"/>
				<path fill="#BA1713" d="M38.059,35.566c0,0-2.592-0.981-3.671,0.196c-1.079,1.178-5.359,11.974-5.751,14.33
					c-0.393,2.355,0.196,5.889,0.196,6.478l6.478-0.196l0.589-4.907l1.178-4.515L38.059,35.566z"/>
				<g>
					<path fill="#ECBF30" d="M27.917,61.673c0-2.168,1.758-3.926,3.926-3.926s3.926,1.758,3.926,3.926
						c0,1.332-0.665,2.507-1.679,3.217c0,0-0.998-1.528-0.855-1.655c0.43-0.383,0.702-0.94,0.702-1.561
						c0-1.156-0.937-2.094-2.094-2.094c-1.156,0-2.094,0.937-2.094,2.094c0,0.53,0.197,1.013,0.521,1.382
						c0.12,0.136-0.899,1.667-0.899,1.667C28.484,64.002,27.917,62.905,27.917,61.673z"/>
				</g>
			</g>
		</g>
		<path fill="#E5B428" d="M55.987,31.052c0,0.651-0.527,1.178-1.178,1.178h-9.618c-0.65,0-1.178-0.527-1.178-1.178l0,0
			c0-0.65,0.527-1.178,1.178-1.178h9.618C55.46,29.874,55.987,30.401,55.987,31.052L55.987,31.052z"/>
		<path fill="#E5B428" d="M53.303,15.279c0,0.833-0.675,1.507-1.507,1.507h-3.592c-0.832,0-1.507-0.675-1.507-1.507v-3.406
			c0-0.833,0.675-1.507,1.507-1.507h3.592c0.832,0,1.507,0.675,1.507,1.507V15.279z"/>
		<path fill="#ECBF30" d="M50.062,16.787h-1.858c-0.832,0-1.507-0.675-1.507-1.507v-3.406c0-0.833,0.675-1.507,1.507-1.507h1.858
			V16.787z"/>
		<path fill="#ECBF30" d="M59.546,25.135c0,2.943-2.385,5.328-5.328,5.328h-8.436c-2.943,0-5.328-2.385-5.328-5.328v-6.57
			c0-2.943,2.385-5.328,5.328-5.328h8.436c2.943,0,5.328,2.385,5.328,5.328V25.135z"/>
		<path fill="#F7CA4D" d="M49.988,30.463h-4.207c-2.943,0-5.328-2.385-5.328-5.328v-6.57c0-2.943,2.385-5.328,5.328-5.328h4.207
			V30.463z"/>
		<g>
			<circle fill="#353535" cx="47.127" cy="21.128" r="1.135"/>
			<circle fill="#353535" cx="52.873" cy="21.128" r="1.135"/>
		</g>
		<g>
			<path fill="#353535" d="M49.851,26.951c-1.945,0-3.51-1.562-3.576-1.629c-0.128-0.129-0.127-0.338,0.003-0.466
				c0.129-0.128,0.338-0.127,0.466,0.002c0.014,0.014,1.441,1.433,3.107,1.433c1.687,0,3.347-1.434,3.363-1.449
				c0.137-0.119,0.345-0.106,0.465,0.031c0.12,0.137,0.106,0.345-0.031,0.465C53.573,25.405,51.782,26.951,49.851,26.951z"/>
		</g>
	</g>
</g>
</svg>
