<svg version="1.1" id="Layer_1" xmlns="http://www.w3.org/2000/svg" xmlns:xlink="http://www.w3.org/1999/xlink" viewBox="0 0 100 100">
<g>
	<g>
		<g>
			<g>
				<circle fill="#EDBF00" cx="50" cy="50" r="50"/>
			</g>
		</g>
	</g>
	<g>
		<g>
			<path fill="#202121" d="M69.113,78.483c0,4.592-1.644,6.235-6.235,6.235H37.936c-4.59,0-6.235-1.644-6.235-6.235V20.286
				c0-4.59,1.645-6.234,6.235-6.234h24.941c4.592,0,6.235,1.644,6.235,6.234L69.113,78.483L69.113,78.483z"/>
			<g>
				<path d="M54.288,16.418c0,0.264-0.309,0.474-0.688,0.474h-6.094c-0.381,0-0.689-0.21-0.689-0.474l0,0
					c0-0.261,0.309-0.472,0.689-0.472h6.094C53.981,15.946,54.288,16.157,54.288,16.418L54.288,16.418z"/>
				<circle cx="55.305" cy="16.453" r="0.519"/>
				<circle cx="56.691" cy="16.453" r="0.519"/>
				<path d="M62.369,16.669c0,0.385-0.312,0.7-0.699,0.7c-0.385,0-0.699-0.314-0.699-0.7c0-0.384,0.313-0.699,0.699-0.699
					C62.057,15.97,62.369,16.285,62.369,16.669z"/>
			</g>
			<path fill="none" stroke="#121212" stroke-miterlimit="10" d="M54.204,81.362c0,0.703-0.429,1.275-0.958,1.275h-5.619
				c-0.527,0-0.956-0.572-0.956-1.275v-0.905c0-0.705,0.429-1.275,0.956-1.275h5.619c0.529,0,0.958,0.571,0.958,1.275V81.362z"/>
			
				<linearGradient id="SVGID_1_" gradientUnits="userSpaceOnUse" x1="106.3201" y1="-28.8919" x2="106.3201" y2="-85.3561" gradientTransform="matrix(1 0 0 -1 -56 -8.086)">
				<stop  offset="0" style="stop-color:#5978BA"/>
				<stop  offset="0.703" style="stop-color:#4E9DB8"/>
				<stop  offset="1" style="stop-color:#379CC9"/>
			</linearGradient>
			<rect x="33.434" y="20.806" fill="url(#SVGID_1_)" width="33.773" height="56.464"/>
			<g>
				<circle fill="#FFFFFF" cx="50.396" cy="64.17" r="0.952"/>
				<circle fill="#FFFFFF" cx="53.86" cy="64.17" r="0.606"/>
				<circle fill="#FFFFFF" cx="56.631" cy="64.17" r="0.606"/>
				<circle fill="#FFFFFF" cx="44.16" cy="64.17" r="0.607"/>
				<circle fill="#FFFFFF" cx="46.932" cy="64.17" r="0.606"/>
			</g>
			<rect x="33.434" y="20.806" opacity="0.5" fill="#202121" enable-background="new    " width="33.758" height="2.831"/>
			<circle fill="#FFFFFF" cx="62.141" cy="22.135" r="0.721"/>
			<circle fill="#FFFFFF" cx="35.165" cy="22.135" r="0.721"/>
			<circle fill="#FFFFFF" cx="65.431" cy="22.135" r="0.721"/>
			<g>
				<path fill="#B5DBAF" d="M41.707,58.983c0,0.643-0.521,1.164-1.164,1.164h-3.399c-0.644,0-1.166-0.521-1.166-1.164v-3.399
					c0-0.644,0.521-1.166,1.166-1.166h3.399c0.643,0,1.164,0.521,1.164,1.166V58.983z"/>
				<path fill="#F6A2A3" d="M49.414,58.983c0,0.643-0.523,1.164-1.166,1.164h-3.397c-0.644,0-1.166-0.521-1.166-1.164v-3.399
					c0-0.644,0.521-1.166,1.166-1.166h3.397c0.643,0,1.166,0.521,1.166,1.166V58.983z"/>
				<path fill="#67B8CB" d="M57.121,58.983c0,0.643-0.521,1.164-1.164,1.164h-3.399c-0.643,0-1.166-0.521-1.166-1.164v-3.399
					c0-0.644,0.523-1.166,1.166-1.166h3.399c0.643,0,1.164,0.521,1.164,1.166V58.983z"/>
				<path fill="#F5E554" d="M64.83,58.983c0,0.643-0.523,1.164-1.166,1.164h-3.399c-0.644,0-1.164-0.521-1.164-1.164v-3.399
					c0-0.644,0.519-1.166,1.164-1.166h3.399c0.643,0,1.166,0.521,1.166,1.166V58.983z"/>
			</g>
			<path fill="none" stroke="#67B8CB" stroke-width="0.5" stroke-miterlimit="10" d="M64.741,49.285
				c0,0.643-0.519,1.163-1.164,1.163h-26.26c-0.643,0-1.166-0.519-1.166-1.163v-1.322c0-0.643,0.523-1.164,1.166-1.164h26.261
				c0.644,0,1.164,0.521,1.164,1.164L64.741,49.285L64.741,49.285z"/>
			<g>
				<circle fill="#DBF0F5" cx="62.028" cy="48.258" r="0.864"/>
				<path fill="#DBF0F5" d="M63.592,49.833c-0.068,0.068-0.197,0.048-0.288-0.043l-0.973-0.973c-0.089-0.091-0.11-0.219-0.043-0.287
					l0.086-0.086c0.068-0.069,0.197-0.048,0.29,0.043l0.971,0.971c0.091,0.092,0.111,0.22,0.042,0.288L63.592,49.833z"/>
			</g>
			<g>
				<path fill="#67B8CB" d="M40.383,71.992c0,0.523-0.424,0.948-0.948,0.948h-2.768c-0.524,0-0.948-0.426-0.948-0.948v-2.769
					c0-0.523,0.424-0.948,0.948-0.948h2.768c0.524,0,0.948,0.426,0.948,0.948V71.992z"/>
				<path fill="#F5E554" d="M46.662,71.992c0,0.523-0.427,0.948-0.95,0.948h-2.768c-0.524,0-0.948-0.426-0.948-0.948v-2.769
					c0-0.523,0.424-0.948,0.948-0.948h2.768c0.523,0,0.95,0.426,0.95,0.948C46.662,69.223,46.662,71.992,46.662,71.992z"/>
				<path fill="#B5DBAF" d="M52.938,71.992c0,0.523-0.426,0.948-0.948,0.948h-2.768c-0.523,0-0.95-0.426-0.95-0.948v-2.769
					c0-0.523,0.427-0.948,0.95-0.948h2.768c0.523,0,0.948,0.426,0.948,0.948V71.992z"/>
				<path fill="#D3D4E3" d="M59.215,71.992c0,0.523-0.424,0.948-0.948,0.948h-2.768c-0.526,0-0.948-0.426-0.948-0.948v-2.769
					c0-0.523,0.422-0.948,0.948-0.948h2.768c0.524,0,0.948,0.426,0.948,0.948V71.992z"/>
				<path fill="#F6A2A3" d="M65.451,71.992c0,0.523-0.426,0.948-0.948,0.948h-2.768c-0.526,0-0.948-0.426-0.948-0.948v-2.769
					c0-0.523,0.422-0.948,0.948-0.948h2.768c0.523,0,0.948,0.426,0.948,0.948V71.992z"/>
			</g>
		</g>
	</g>
	<g>
		<path fill="#6CC077" d="M37.316,44.213h26.261c0.644,0,1.164-0.521,1.164-1.164v-4.222l-2.174-2.174c0,0-1.235-1.593-2.383-1.528
			c-1.033,0.06-2.239,1.352-2.47,1.608l-1.446-1.446c0,0-1.446-1.866-2.791-1.791c-1.348,0.077-2.953,1.951-2.953,1.951
			l-0.441,0.441l-2.721-2.723c0,0-1.779-2.293-3.433-2.199c-1.653,0.092-3.628,2.394-3.628,2.394L36.15,37.51v5.539
			C36.151,43.692,36.674,44.213,37.316,44.213z"/>
		<path fill="#DBF0F5" d="M43.93,30.966c1.653-0.094,3.433,2.199,3.433,2.199l2.721,2.723l0.441-0.441c0,0,1.605-1.873,2.953-1.951
			c1.344-0.076,2.791,1.791,2.791,1.791l1.446,1.446c0.231-0.256,1.437-1.548,2.47-1.608c1.147-0.065,2.383,1.528,2.383,1.528
			l2.174,2.174V27.873c0-0.644-0.519-1.166-1.164-1.166H37.316c-0.643,0-1.166,0.521-1.166,1.166v9.637l4.151-4.149
			C40.301,33.361,42.277,31.059,43.93,30.966z"/>
	</g>
</g>
</svg>
