<svg viewBox="0 0 128 128" xmlns="http://www.w3.org/2000/svg" xmlns:xlink="http://www.w3.org/1999/xlink"><circle cx="64" cy="64" fill="#F0553A" r="64"/><path d="M37.17,80.166h-8.663c-0.478,0.24-0.97,0.426-1.455,0.523v5.191H37.17V80.166z" fill="#686868"/><rect fill="#686868" height="5.715" width="42.167" x="49.42" y="80.166"/><path d="M91.253,72.203H32.625l-0.79,3.863c-0.278,2.197-2.628,4.189-4.782,4.623v0.059h64.2V72.203z" fill="#545454"/><path d="M98.95,80.689v5.189h-8v-5.189c-2.16-0.432-4.51-2.422-4.78-4.621l-0.79-3.859h8l0.79,3.859  C94.44,78.267,96.79,80.257,98.95,80.689z" fill="#545454"/><rect fill="#828282" height="5.164" width="12.917" x="36.864" y="80.716"/><path d="M93.358,66.31l-0.172-1.408c-0.213-1.375-0.361-2.333-0.613-3.945C90.349,45.877,77.056,39.34,63.75,39.342  C50.441,39.344,36.15,45.87,33.925,60.957c-0.25,1.611-0.589,4.019-0.589,4.019l-0.167,1.334c-0.167,1.863-1.523,3.676-3.452,4.064  v4.646h9.202v-0.688h10.5v0.688h47.361v-4.646C94.853,69.986,93.581,68.451,93.358,66.31z" fill="#EAD57D"/><path d="M97.78,70.378v4.639h-9.66v-4.639c-1.93-0.391-3.2-1.93-3.43-4.07l-0.17-1.41  c-0.211-1.369-0.36-2.33-0.61-3.939c-1.63-11-8.47-18.351-17.22-21.511c12.399,0.89,24.819,7.53,26.879,21.511  c0.261,1.609,0.4,2.57,0.621,3.939l0.17,1.41C94.58,68.449,95.851,69.988,97.78,70.378z" fill="#D6C169"/><path d="M61.27,43.148c-4.13,2.729-6.97,7.869-7.34,17.811c-0.1,2.708-0.54,5.259-0.54,5.259  c-0.37,1.859-1.74,3.77-3.67,4.16v4.639h-11v-4.639c1.93-0.391,3.28-2.201,3.45-4.07l0.17-1.33c0,0,0.33-2.41,0.59-4.019  c1.5-10.221,8.54-16.511,17.06-19.5C62.29,40.908,62.7,41.658,61.27,43.148z" fill="#FFEF97"/><path d="M58.157,31.002c0.187,2.514,2.28,4.498,4.844,4.498c2.562,0,4.656-1.984,4.843-4.498H58.157z" fill="#EAD57D"/></svg>