<svg viewBox="0 0 128 128" xmlns="http://www.w3.org/2000/svg" xmlns:xlink="http://www.w3.org/1999/xlink"><circle cx="64" cy="64" fill="#8A7469" r="64"/><path d="M52.343,50.293v33.29c0,1.11-0.57,1.71-1.67,1.71h-27.66c-1.1,0-1.67-0.6-1.67-1.71v-33.29H52.343z" fill="#F7F7F7"/><path d="M88.029,50.293v35h17.645c1.1,0,1.67-0.6,1.67-1.71v-33.29H88.029z" fill="#F7F7F7"/><path d="M50.67,42.293H23.016c-1.104,0-1.673,0.604-1.673,1.707v6.293h31V44  C52.343,42.896,51.774,42.293,50.67,42.293z" fill="#EAD57D"/><path d="M105.669,42.293H88.029v8h19.312V44C107.343,42.896,106.773,42.293,105.669,42.293z" fill="#F0553A"/><rect fill="#E3E3E3" height="36" width="6.189" x="82.154" y="49.293"/><rect fill="#DC4126" height="8" width="6.189" x="82.154" y="42.293"/><path d="M83.343,36.293v61.29c0,1.11-0.57,1.71-1.67,1.71h-34.66c-1.1,0-1.67-0.6-1.67-1.71v-61.29H83.343z" fill="#FFFFFF"/><path d="M81.669,28.293H47.016c-1.104,0-1.673,0.604-1.673,1.707v7.293h38V30  C83.343,28.896,82.773,28.293,81.669,28.293z" fill="#19D77A"/></svg>