<svg version="1.1" id="Layer_1" xmlns="http://www.w3.org/2000/svg" xmlns:xlink="http://www.w3.org/1999/xlink" viewBox="0 0 100 100" >
<g>
	<g>
		<g>
			<g>
				<g>
					<path fill="#A0D2DC" d="M96.645,68.007C98.805,62.418,100,56.351,100,50c0-27.615-22.386-50-49.999-50C22.386,0,0,22.385,0,50
						c0,5.668,0.958,11.11,2.695,16.191c12.572-6.628,28.296-9.788,45.363-9.788C66.616,56.402,83.59,60.138,96.645,68.007z"/>
				</g>
				<g>
					<path fill="#B1C635" d="M50.001,100.001c21.264,0,39.415-13.281,46.644-31.994c-13.054-7.87-30.028-11.605-48.587-11.605
						c-17.066,0-32.791,3.161-45.363,9.788C9.426,85.856,28.056,100.001,50.001,100.001z"/>
				</g>
			</g>
		</g>
	</g>
	<g>
		<g>
			<path fill="#3A2F22" d="M62.445,49.856c-0.657-6.171-5.878-10.98-12.224-10.98s-11.569,4.81-12.224,10.983l7.919,4.577h7.563
				L62.445,49.856z"/>
		</g>
		<g>
			<path fill="#F3F4F5" d="M61.683,49.515c-0.617-5.788-5.512-10.296-11.462-10.296s-10.849,4.51-11.463,10.299L30.392,82.65
				c0,1.76,2.577,3.186,5.758,3.186h28.143c3.179,0,5.758-1.427,5.758-3.186L61.683,49.515z"/>
		</g>
		<g>
			<g>
				<path fill="#E9E9EA" d="M61.683,49.515l-8.406-1.131h-7.091l-7.427,1.134L30.392,82.65c0,1.76,2.577,3.186,5.758,3.186h28.143
					c3.179,0,5.758-1.427,5.758-3.186L61.683,49.515z"/>
			</g>
		</g>
		<g>
			<g>
				<path fill="#DFDFDF" d="M46.185,48.384l-7.427,1.134L30.392,82.65c0,1.76,2.577,3.186,5.758,3.186L46.185,48.384z"/>
			</g>
		</g>
		<g>
			<g>
				<path fill="#ECECEC" d="M61.683,49.515l-8.406-1.131l11.016,37.451c3.179,0,5.758-1.427,5.758-3.186L61.683,49.515z"/>
			</g>
		</g>
		<g>
			<g>
				<path fill="#665C51" d="M50.001,100.001c2.379,0,4.717-0.175,7.008-0.497l7.285-13.669H36.149l6.228,13.581
					C44.863,99.797,47.407,100.001,50.001,100.001z"/>
			</g>
			<g>
				<path fill="#5B4F3F" d="M30.53,83.339l-0.139-0.689C30.392,82.886,30.442,83.116,30.53,83.339z"/>
			</g>
			<g>
				<path fill="#5B4F3F" d="M36.149,85.835c-2.752,0-5.049-1.069-5.619-2.496l2.779,13.797c2.91,1.031,5.939,1.802,9.068,2.282
					L36.149,85.835z"/>
			</g>
			<g>
				<path fill="#766959" d="M64.293,85.835l-7.285,13.669c3.514-0.493,6.914-1.347,10.155-2.532l2.747-13.634
					C69.341,84.766,67.043,85.835,64.293,85.835z"/>
			</g>
			<g>
				<path fill="#766959" d="M69.911,83.339c0.088-0.222,0.139-0.452,0.139-0.689L69.911,83.339z"/>
			</g>
		</g>
		<g>
			<path fill="#5B4F3F" d="M62.445,49.856c-0.657-6.171-5.878-10.98-12.224-10.98s-11.569,4.81-12.224,10.983l7.919-1.208
				l7.563-0.001L62.445,49.856z"/>
		</g>
		<g>
			<circle fill="#3A2F22" cx="49.991" cy="44.176" r="2.222"/>
		</g>
		<g>
			<g>
				<g>
					<path fill="#51473A" d="M74.701,67.68c-0.02-0.13-0.079-0.257-0.179-0.358l-0.079-0.077l-17.49-17.49l-6.51-6.512
						c-0.251-0.25-0.657-0.25-0.906-0.002l-0.362,0.365c-0.251,0.249-0.251,0.654,0,0.905l5.8,5.8l-3.036,3.036
						c-0.392,0.392-0.392,1.03,0.002,1.423l17.49,17.49c0.393,0.393,1.03,0.393,1.422,0l3.593-3.593
						C74.711,68.4,74.795,68.02,74.701,67.68z M69.882,68.485l-0.996-0.998l1.204-1.204l0.998,0.998L69.882,68.485z M68.615,67.216
						l-0.998-0.998l1.204-1.204l0.998,0.997L68.615,67.216z M67.346,65.947l-1.134-1.134l1.204-1.204l1.134,1.134L67.346,65.947z
						 M65.94,64.541L64.897,63.5l1.206-1.204l1.041,1.041L65.94,64.541z M64.626,63.228l-0.996-0.997l1.204-1.205l0.996,0.997
						L64.626,63.228z M63.358,61.959l-1.089-1.088l1.204-1.204l1.089,1.088L63.358,61.959z M61.998,60.6l-0.998-0.998l1.204-1.204
						l0.998,0.997L61.998,60.6z M60.729,59.33l-1.089-1.088l1.206-1.204l1.087,1.088L60.729,59.33z M59.37,57.971l-0.996-0.996
						l1.204-1.205l0.996,0.997L59.37,57.971z M58.1,56.701l-1.087-1.087l1.204-1.205l1.087,1.088L58.1,56.701z M56.741,55.342
						l-0.996-0.997l1.204-1.204l0.998,0.997L56.741,55.342z M55.473,54.073l-1.22-1.219l0.665-0.665
						c0.299-0.298,0.828-0.251,1.183,0.103l0.576,0.576L55.473,54.073z M71.359,67.552l0.546,0.546
						c0.356,0.354,0.401,0.883,0.103,1.182l-0.665,0.666l-1.189-1.189L71.359,67.552z M53.283,53.826l0.697-0.699l1.221,1.218
						l-1.239,1.238l-0.576-0.576C53.03,54.653,52.984,54.124,53.283,53.826z M55.473,54.617l0.996,0.998l-1.238,1.238l-0.998-0.997
						L55.473,54.617z M56.741,55.886l1.089,1.088l-1.239,1.239l-1.087-1.088L56.741,55.886z M58.1,57.246l0.998,0.996l-1.238,1.239
						l-0.998-0.997L58.1,57.246z M59.37,58.515l1.087,1.087l-1.238,1.239l-1.087-1.087L59.37,58.515z M60.729,59.873l0.996,0.998
						l-1.238,1.238l-0.996-0.996L60.729,59.873z M61.998,61.143l1.089,1.088l-1.239,1.238l-1.089-1.087L61.998,61.143z
						 M63.356,62.502l0.998,0.998l-1.239,1.238l-0.996-0.998L63.356,62.502z M64.626,63.771l1.042,1.042l-1.236,1.239l-1.044-1.042
						L64.626,63.771z M65.941,65.085l1.132,1.133l-1.238,1.239l-1.132-1.134L65.941,65.085z M67.346,66.491l0.996,0.997
						l-1.238,1.238l-0.996-0.996L67.346,66.491z M68.615,67.759l0.996,0.997l-1.238,1.238l-0.998-0.996L68.615,67.759z
						 M70.372,70.915c-0.299,0.298-0.827,0.253-1.183-0.102l-0.546-0.546l1.238-1.239l1.189,1.189L70.372,70.915z"/>
				</g>
			</g>
			<g>
				<g>
					<path fill="#51473A" d="M25.254,20.38c0.018,0.131,0.077,0.257,0.176,0.358l0.079,0.079l17.49,17.49l6.512,6.512
						c0.249,0.249,0.655,0.249,0.905,0l0.364-0.364c0.251-0.249,0.251-0.655,0-0.905l-5.8-5.801l3.035-3.035
						c0.393-0.393,0.393-1.03,0-1.423l-17.49-17.489c-0.393-0.392-1.03-0.392-1.422,0l-3.593,3.594
						C25.241,19.662,25.157,20.042,25.254,20.38z M30.069,19.577l0.996,0.998l-1.202,1.203l-0.998-0.997L30.069,19.577z
						 M31.338,20.846l0.998,0.997l-1.204,1.204l-0.998-0.997L31.338,20.846z M32.607,22.116l1.134,1.133l-1.204,1.205l-1.134-1.134
						L32.607,22.116z M34.014,23.52l1.042,1.042l-1.206,1.205l-1.041-1.042L34.014,23.52z M35.326,24.834l0.998,0.998l-1.204,1.204
						l-0.996-0.998L35.326,24.834z M36.595,26.103l1.089,1.088l-1.204,1.205l-1.089-1.089L36.595,26.103z M37.955,27.462
						l0.998,0.997l-1.204,1.204l-0.999-0.996L37.955,27.462z M39.224,28.731l1.087,1.088l-1.204,1.204l-1.087-1.087L39.224,28.731z
						 M40.584,30.091l0.996,0.997l-1.204,1.204l-0.996-0.997L40.584,30.091z M41.853,31.36l1.086,1.089l-1.202,1.204l-1.089-1.088
						L41.853,31.36z M43.213,32.719l0.996,0.998l-1.206,1.204l-0.996-0.998L43.213,32.719z M44.478,33.989l1.22,1.218l-0.665,0.665
						c-0.298,0.298-0.827,0.253-1.183-0.103l-0.573-0.576L44.478,33.989z M28.592,20.511l-0.544-0.546
						c-0.354-0.354-0.401-0.884-0.103-1.182l0.665-0.665l1.189,1.188L28.592,20.511z M46.67,34.236l-0.7,0.699l-1.218-1.219
						l1.239-1.239l0.576,0.576C46.923,33.408,46.968,33.937,46.67,34.236z M44.48,33.444l-0.998-0.996l1.239-1.239l0.998,0.998
						L44.48,33.444z M43.211,32.175l-1.087-1.087l1.239-1.238l1.086,1.087L43.211,32.175z M41.853,30.816l-0.998-0.997l1.238-1.238
						l0.998,0.996L41.853,30.816z M40.584,29.547l-1.087-1.088l1.238-1.238l1.087,1.087L40.584,29.547z M39.224,28.188l-0.996-0.998
						l1.238-1.238l0.996,0.997L39.224,28.188z M37.955,26.919l-1.089-1.087l1.239-1.239l1.089,1.088L37.955,26.919z M36.595,25.559
						l-0.996-0.996l1.238-1.239l0.996,0.997L36.595,25.559z M35.326,24.29l-1.041-1.041l1.238-1.239l1.042,1.042L35.326,24.29z
						 M34.012,22.976l-1.132-1.133l1.238-1.239l1.132,1.134L34.012,22.976z M32.607,21.571l-0.998-0.996l1.239-1.239l0.996,0.998
						L32.607,21.571z M31.338,20.302l-0.996-0.996l1.238-1.239l0.996,0.998L31.338,20.302z M29.58,17.146
						c0.298-0.298,0.828-0.251,1.183,0.103l0.544,0.546l-1.238,1.238l-1.187-1.187L29.58,17.146z"/>
				</g>
			</g>
			<g>
				<g>
					<path fill="#51473A" d="M26.325,68.755c0.133-0.019,0.259-0.078,0.359-0.179l0.079-0.077l17.49-17.49l6.51-6.512
						c0.249-0.249,0.249-0.655,0-0.905l-0.364-0.364c-0.249-0.249-0.654-0.249-0.904,0l-5.801,5.801l-3.035-3.036
						c-0.393-0.392-1.03-0.392-1.422,0l-17.491,17.49c-0.393,0.392-0.392,1.029,0,1.423l3.594,3.593
						C25.607,68.766,25.986,68.85,26.325,68.755z M25.522,63.937l0.999-0.998l1.202,1.205l-0.998,0.997L25.522,63.937z
						 M26.791,62.669l0.998-0.998l1.204,1.206l-0.996,0.996L26.791,62.669z M28.061,61.4l1.132-1.134l1.204,1.204l-1.132,1.134
						L28.061,61.4z M29.466,59.995l1.041-1.042l1.206,1.204l-1.042,1.042L29.466,59.995z M30.78,58.68l0.996-0.997l1.204,1.204
						l-0.996,0.998L30.78,58.68z M32.049,57.412l1.087-1.088l1.204,1.205l-1.089,1.088L32.049,57.412z M33.408,56.052l0.998-0.998
						l1.204,1.205l-0.998,0.997L33.408,56.052z M34.678,54.783l1.086-1.087l1.206,1.204l-1.089,1.087L34.678,54.783z M36.036,53.423
						l0.996-0.996l1.204,1.204l-0.996,0.997L36.036,53.423z M37.305,52.154l1.087-1.087l1.206,1.204l-1.089,1.088L37.305,52.154z
						 M38.665,50.796l0.996-0.998l1.206,1.205L39.869,52L38.665,50.796z M39.935,49.526l1.218-1.218l0.665,0.665
						c0.298,0.298,0.251,0.827-0.103,1.182l-0.576,0.576L39.935,49.526z M26.455,65.414l-0.544,0.546
						c-0.356,0.354-0.885,0.402-1.183,0.103l-0.665-0.665l1.187-1.189L26.455,65.414z M40.183,47.337l0.697,0.699l-1.218,1.22
						l-1.238-1.239L39,47.441C39.355,47.086,39.884,47.039,40.183,47.337z M39.39,49.526l-0.998,0.998l-1.238-1.239l0.998-0.996
						L39.39,49.526z M38.122,50.796l-1.089,1.087l-1.238-1.238l1.089-1.087L38.122,50.796z M36.761,52.156l-0.996,0.996
						l-1.239-1.238l0.998-0.997L36.761,52.156z M35.494,53.424l-1.089,1.088l-1.238-1.238l1.087-1.088L35.494,53.424z
						 M34.134,54.783l-0.998,0.998l-1.238-1.238l0.998-0.998L34.134,54.783z M32.864,56.052l-1.087,1.088l-1.238-1.239l1.087-1.087
						L32.864,56.052z M31.505,57.412l-0.998,0.997l-1.238-1.239l0.998-0.996L31.505,57.412z M30.235,58.681l-1.042,1.042
						l-1.238-1.238l1.042-1.042L30.235,58.681z M28.922,59.995l-1.134,1.134l-1.238-1.238l1.134-1.134L28.922,59.995z M27.517,61.4
						l-0.996,0.998l-1.239-1.239l0.996-0.997L27.517,61.4z M26.249,62.669l-0.998,0.998l-1.238-1.239l0.998-0.996L26.249,62.669z
						 M23.092,64.427c-0.299-0.298-0.251-0.827,0.103-1.182l0.546-0.546l1.238,1.238l-1.189,1.189L23.092,64.427z"/>
				</g>
			</g>
			<g>
				<g>
					<path fill="#51473A" d="M73.627,19.307c-0.133,0.019-0.259,0.078-0.359,0.178l-0.079,0.078l-17.49,17.491l-6.51,6.512
						c-0.251,0.249-0.251,0.655,0,0.905l0.362,0.365c0.251,0.249,0.655,0.249,0.905,0l5.801-5.801l3.035,3.035
						c0.393,0.393,1.03,0.393,1.423,0l17.489-17.49c0.395-0.392,0.393-1.029,0-1.422l-3.593-3.594
						C74.346,19.296,73.965,19.211,73.627,19.307z M74.43,24.123l-0.998,0.998l-1.202-1.204l0.996-0.996L74.43,24.123z
						 M73.16,25.392l-0.996,0.998l-1.204-1.204l0.996-0.997L73.16,25.392z M71.891,26.661l-1.134,1.134l-1.204-1.204l1.134-1.133
						L71.891,26.661z M70.487,28.067l-1.042,1.041l-1.204-1.204l1.044-1.041L70.487,28.067z M69.173,29.38l-0.996,0.997
						l-1.206-1.204l0.998-0.996L69.173,29.38z M67.905,30.649l-1.089,1.088l-1.204-1.204l1.089-1.087L67.905,30.649z M66.544,32.009
						l-0.996,0.998l-1.204-1.204l0.996-0.998L66.544,32.009z M65.275,33.277l-1.087,1.089l-1.204-1.205l1.089-1.087L65.275,33.277z
						 M63.916,34.638l-0.998,0.996l-1.202-1.202l0.996-0.998L63.916,34.638z M62.646,35.906l-1.086,1.087l-1.206-1.204l1.089-1.087
						L62.646,35.906z M61.287,37.265l-0.998,0.998l-1.204-1.203l0.999-0.997L61.287,37.265z M60.018,38.534L58.8,39.753
						l-0.665-0.663c-0.298-0.298-0.251-0.828,0.103-1.183l0.576-0.576L60.018,38.534z M73.498,22.648l0.546-0.546
						c0.354-0.354,0.883-0.401,1.181-0.103l0.665,0.664l-1.187,1.189L73.498,22.648z M59.771,40.724l-0.699-0.699l1.218-1.218
						l1.239,1.238l-0.576,0.576C60.598,40.976,60.069,41.022,59.771,40.724z M60.562,38.535l0.998-0.997l1.238,1.238L61.8,39.774
						L60.562,38.535z M61.832,37.267l1.087-1.089l1.239,1.239l-1.089,1.088L61.832,37.267z M63.192,35.906l0.996-0.997l1.239,1.238
						l-0.996,0.997L63.192,35.906z M64.459,34.638l1.089-1.087l1.238,1.238l-1.087,1.087L64.459,34.638z M65.82,33.278l0.998-0.997
						l1.238,1.238l-0.996,0.997L65.82,33.278z M67.088,32.009l1.089-1.087l1.238,1.238l-1.089,1.089L67.088,32.009z M68.449,30.65
						l0.998-0.998l1.238,1.239l-0.998,0.997L68.449,30.65z M69.717,29.381l1.042-1.042l1.238,1.238l-1.042,1.042L69.717,29.381z
						 M71.031,28.068l1.134-1.134l1.238,1.238l-1.134,1.134L71.031,28.068z M72.435,26.662l0.996-0.997l1.239,1.238l-0.998,0.998
						L72.435,26.662z M73.705,25.393l0.998-0.997l1.238,1.238l-0.998,0.998L73.705,25.393z M76.861,23.635
						c0.298,0.298,0.251,0.828-0.103,1.183l-0.546,0.546l-1.238-1.238l1.187-1.189L76.861,23.635z"/>
				</g>
			</g>
			<g>
				<circle fill="#3A2F22" cx="49.991" cy="44.176" r="1.828"/>
			</g>
			<g>
				<circle fill="#423528" cx="49.991" cy="44.176" r="1.154"/>
			</g>
			<g>
				<path fill="#4C3E30" d="M49.311,44.712c-0.336-0.336-0.335-0.879,0-1.214c0.336-0.336,0.879-0.337,1.217-0.001
					C50.862,43.833,49.647,45.048,49.311,44.712z"/>
			</g>
		</g>
		<g>
			<path fill="#665C51" d="M52.21,63.834c0,0.56-0.453,1.013-1.011,1.013h-2.645c-0.56,0-1.013-0.453-1.013-1.013v-4.5
				c0-0.559,0.453-1.012,1.013-1.012h2.645c0.558,0,1.011,0.453,1.011,1.012V63.834z"/>
		</g>
		<g>
			<path fill="#665C51" d="M52.21,77.359c0,0.56-0.453,1.013-1.011,1.013h-2.645c-0.56,0-1.013-0.453-1.013-1.013v-4.501
				c0-0.559,0.453-1.012,1.013-1.012h2.645c0.558,0,1.011,0.453,1.011,1.012V77.359z"/>
		</g>
	</g>
</g>
</svg>
