<svg version="1.1" id="Layer_1" xmlns="http://www.w3.org/2000/svg" xmlns:xlink="http://www.w3.org/1999/xlink" viewBox="0 0 100 100" >
<g>
	<g>
		<path fill="#22C48A" d="M0,49.999C0,22.386,22.386,0,50.001,0C77.614,0,100,22.386,100,49.999C100,77.615,77.614,100,50.001,100
			C22.386,100,0,77.615,0,49.999z"/>
	</g>
	<g>
		<g>
			<g>
				<polygon fill="#F7D98B" points="35.054,21.823 25.98,53.485 25.911,55.505 45.522,55.022 45.43,53.49 				"/>
			</g>
		</g>
		<g>
			<g>
				<polygon fill="#626463" points="34.999,21.645 31.052,35.473 39.558,35.473 				"/>
			</g>
		</g>
		<g>
			<g>
				<g>
					<path fill="#E84849" d="M44.124,51.82l-2.855,3.204l-0.018,44.198c1.399,0.246,2.815,0.438,4.251,0.568l0.02-44.767
						L44.124,51.82z"/>
				</g>
			</g>
			<g>
				<g>
					<path fill="#E84849" d="M34.695,97.605l0.02-42.584l-2.931-3.201l-2.7,3.202l-0.016,40.385
						C30.889,96.247,32.765,96.985,34.695,97.605z"/>
				</g>
			</g>
			<g>
				<g>
					<path fill="#F06668" d="M29.085,55.022l-2.373-3.204l-0.827,3.202l-0.017,38.774c1.044,0.575,2.113,1.11,3.201,1.613
						L29.085,55.022z"/>
				</g>
			</g>
			<g>
				<g>
					<path fill="#F06668" d="M41.251,99.221l0.018-44.198l-3.281-3.204l-3.273,3.201l-0.02,42.584
						C36.822,98.289,39.011,98.826,41.251,99.221z"/>
				</g>
			</g>
		</g>
	</g>
	<g>
		<g>
			<path fill="#276D69" d="M69.435,44.26c-0.864,8.868-3.825,6.783-6.938,6.783c-3.054,0-5.888,1.984-6.938-6.782
				c-1.044-8.727,6.938-23.653,6.938-23.653S70.287,35.524,69.435,44.26z"/>
		</g>
		<g>
			<path fill="#355957" d="M62.496,51.043c-3.054,0-5.888,1.984-6.938-6.782c-1.044-8.727,6.938-23.653,6.938-23.653
				S62.496,51.043,62.496,51.043z"/>
		</g>
		<g>
			<g>
				<g>
					<path fill="#E79E2D" d="M58.206,51.141l-3.931,44.467l-0.229,3.141c0.128-1.199,0.229-2.318,0.229-2.883l3.931-44.689
						c0-0.724,2.288-1.041,4.578-1.019c0,0,0,38.171-0.002,48.185c2.941-0.775,5.775-1.814,8.478-3.086l-3.899-44.117
						C67.362,49.876,58.206,49.701,58.206,51.141z"/>
				</g>
			</g>
			<g>
				<g>
					<path fill="#D68A28" d="M54.046,98.75c-0.039,0.358-0.079,0.723-0.12,1.082c0.014-0.002,0.028-0.002,0.042-0.003L54.046,98.75z
						"/>
				</g>
			</g>
			<g>
				<g>
					<path fill="#D68A28" d="M62.783,98.344c0.002-10.014,0.002-48.185,0.002-48.185c-2.291-0.021-4.578,0.295-4.578,1.019
						l-3.931,44.689c0,0.564-0.102,1.684-0.229,2.883l-0.079,1.079C56.989,99.591,59.938,99.096,62.783,98.344z"/>
				</g>
			</g>
		</g>
		<g>
			<path fill="#CDCCCB" d="M58.454,51.137L55.11,86.994l15.626,0.083l-3.128-35.94C67.608,49.936,58.454,49.772,58.454,51.137z"/>
		</g>
		<g>
			<path fill="#B1B1B2" d="M58.206,51.122L55.11,86.994l7.681-0.017c0,0,0.309-36.817-0.006-36.817
				C60.497,50.161,58.206,50.438,58.206,51.122z"/>
		</g>
		<g>
			<path fill="#BFBEBE" d="M57.644,58.615l-2.321,26.054l15.244,0.213l-2.323-26.14C68.243,57.829,57.645,57.576,57.644,58.615z"/>
		</g>
		<g>
			<path fill="#AAAAAA" d="M58.206,51.122l-2.928,33.717l7.533-0.095c0,0,0.206-34.583-0.028-34.583
				C60.497,50.161,58.206,50.438,58.206,51.122z"/>
		</g>
	</g>
</g>
</svg>
