<svg version="1.1" id="Layer_1" xmlns="http://www.w3.org/2000/svg" xmlns:xlink="http://www.w3.org/1999/xlink" viewBox="0 0 100 100" >
<g>
	<g>
		<g>
			<g>
				<circle fill="#C6B298" cx="50" cy="50" r="50"/>
			</g>
		</g>
	</g>
	<g>
		<path fill="#EA6A25" d="M76.148,27.649c-6.311-7.377-15.68-12.056-26.148-12.056c-19.001,0-34.407,15.404-34.407,34.407
			c0,10.772,4.951,20.383,12.7,26.691c5.921,4.823,13.475,7.717,21.707,7.717c19.004,0,34.409-15.404,34.409-34.409
			C84.408,41.465,81.293,33.663,76.148,27.649z"/>
		<g>
			<path fill="#F37C2A" d="M65.86,66.126C76.663,55.321,80.198,40.241,76.147,27.65c-6.311-7.377-15.68-12.056-26.148-12.056
				c-19.001,0-34.407,15.404-34.407,34.407c0,10.772,4.951,20.383,12.7,26.691C40.694,80.291,55.316,76.671,65.86,66.126z"/>
		</g>
		<path fill="#3A3A39" d="M84.289,52.711c0.042-0.518,0.071-1.037,0.089-1.562c-1.989-1.461-5.173-2.818-8.9-4.044
			c0.398-3.438,0.353-6.538,0.011-9.307l6.075-1.517c-0.173-0.399-0.348-0.797-0.537-1.189l-5.719,1.43
			c-0.84-5.187-2.703-9.134-4.487-11.886c-1.175-1.815-2.398-3.261-3.48-4.371c-1.269-0.741-2.586-1.412-3.951-1.99l-0.125,0.201
			c0.034,0.021,3.477,2.207,6.516,6.916c1.697,2.635,3.474,6.422,4.269,11.407C65.43,38.02,50.294,24.435,50.148,24.302
			c-4.381-4.098-9.07-5.903-11.89-6.675c-0.703,0.254-1.393,0.537-2.072,0.836c1.923,0.364,7.798,1.828,13.094,6.783
			c0.617,0.558,14.38,12.918,23.658,12.918c0.443,0,0.872-0.039,1.292-0.097c0.312,2.578,0.353,5.455,0.005,8.638
			c-12.064-3.759-28.768-6.18-29.792-6.325c-17.637-2.092-25.225,1.098-28.276,3.349c-0.12,0.647-0.22,1.301-0.302,1.959
			c1.554-1.674,7.915-6.468,28.41-4.038c0.249,0.036,17.708,2.564,29.811,6.332l0,0l-0.005,0.057
			c-0.003,0.052-0.217,3.842-1.639,9.002c-4.145-1.841-9.056-0.375-9.636-0.188c-1.898,0.372-19.045,6.767-21.015,7.505
			l-0.037,0.014c-8.467,3.766-18.935,3.827-20.958,3.801c0.272,0.437,0.552,0.867,0.843,1.288
			c3.321-0.011,12.673-0.382,20.619-3.906c7.791-2.914,19.75-7.293,20.798-7.445l0.111-0.024c0.057-0.018,5.02-1.614,8.916,0.202
			c-0.519,1.724-1.166,3.564-1.986,5.455c-3.101,7.153-9.267,16.328-21.172,20.619c0.358,0.011,0.714,0.028,1.074,0.028
			c0.823,0,1.637-0.04,2.446-0.096c10.328-4.811,15.905-13.295,18.831-20.042c0.797-1.839,1.432-3.622,1.951-5.298
			c0.208,0.148,0.416,0.298,0.612,0.474c0.309,0.348,4.205,4.925,3.906,10.902c0.443-0.603,0.864-1.224,1.267-1.857
			c-0.452-5.725-4.069-9.741-4.247-9.932l-0.043-0.043c-0.354-0.319-0.731-0.586-1.113-0.831c1.322-4.682,1.662-8.277,1.736-9.281
			C79.349,49.704,82.633,51.163,84.289,52.711z"/>
	</g>
</g>
</svg>
