<svg viewBox="0 0 127.999 128" xmlns="http://www.w3.org/2000/svg" xmlns:xlink="http://www.w3.org/1999/xlink"><g><path d="M64,0C28.65,0,0,28.65,0,64c0,25.18,14.53,46.95,35.669,57.398c0.18,0.09,0.35,0.17,0.53,0.25   c0.084,0.041,0.171,0.074,0.255,0.115c0.4-0.265,0.921-0.352,1.465-0.08c15.749,7.807,36.234,6.256,51.97-0.438   c0.732-0.312,1.422-0.025,1.836,0.458c0.064-0.032,0.131-0.062,0.193-0.096c0.08-0.039,0.17-0.08,0.25-0.129   c21.229-10.41,35.83-32.239,35.83-57.479C128,28.65,99.35,0,64,0z" fill="#8A7469"/><path d="M64.632,87.232H91.92V70L64.329,55.5l-28.13,15.09v51.059c8.41,4.08,17.84,6.352,27.8,6.352h0.09   c0.183,0,0.361-0.01,0.543-0.012V87.232z" fill="#EAD57D"/><polygon fill="#D6C169" points="64.231,55.484 36.231,69.906 36.231,87.906 64.231,87.906  "/><path d="M92.17,88v33.48c-0.08,0.049-0.17,0.09-0.25,0.129c-0.08,0.041-0.17,0.08-0.25,0.121   c-1.57,0.75-3.17,1.438-4.811,2.067c-0.141,0.052-0.279,0.103-0.422,0.15c-3.697,1.39-7.561,2.438-11.539,3.13   c-3.471,0.602-7.039,0.92-10.729,0.92V88H92.17z" fill="#D6C169"/><g><path d="M107.284,80.843l-13.348-8.009c-0.002,0-0.002-0.001-0.002-0.001l-1.986-1.19l-2.006,1.158l0,0    l-23.98,13.848c-0.004,0.002-0.004,0.004-0.006,0.004l-2.002,1.156l1.984,1.189c0,0,0.002,0.002,0.004,0.003l5.648,3.388    l4.764,2.859l0,0l2.938,1.76c1.094,0.657,2.891,0.672,3.994,0.034l23.979-13.847C108.368,82.557,108.377,81.499,107.284,80.843z" fill="#FFEF97"/><path d="M64.263,55.438l-1.529-0.896c-0.002,0-0.003-0.001-0.005-0.003l-13.348-8.007    c-1.094-0.656-2.891-0.673-3.995-0.034l-23.98,13.848c-1.104,0.639-1.112,1.695-0.02,2.353l13.349,8.009    c0,0,0.001,0.001,0.002,0.002l1.438,0.868L64.263,55.438z" fill="#FFEF97"/><path d="M64.148,55.495l1.436-0.868c0.002,0,0.004-0.001,0.006-0.003l13.348-8.007    c1.096-0.656,2.893-0.672,3.994-0.034l23.98,13.849c1.104,0.637,1.111,1.694,0.02,2.353l-13.348,8.008l-0.002,0.002l-1.439,0.868    L64.148,55.495z" fill="#FFEF97"/><path d="M62.061,88.958l1.984-1.19l-2.001-1.156c-0.003,0-0.004-0.002-0.006-0.004L38.059,72.76h-0.001    l-2.006-1.158l-1.985,1.19l-0.002,0.001l-13.349,8.01c-1.093,0.656-1.084,1.715,0.02,2.353l21.249,12.271l0.744,0.432l0,0    l1.987,1.146c1.104,0.639,2.901,0.622,3.995-0.033l3.643-2.187c0.001,0,0.001,0,0.001,0l5.7-3.419l4.004-2.402    C62.061,88.959,62.061,88.959,62.061,88.958z" fill="#FFEF97"/></g><g><path d="M64,35.23c-3.854,0-7.479-1.502-10.205-4.23c-1.562-1.562-1.562-4.095,0-5.656s4.096-1.562,5.656,0    c1.217,1.217,2.832,1.887,4.549,1.887c1.715,0,3.331-0.67,4.547-1.887c1.561-1.562,4.096-1.562,5.658,0    c1.561,1.562,1.561,4.094,0,5.656C71.477,33.729,67.854,35.23,64,35.23z" fill="#FFFFFF"/></g></g></svg>