<svg version="1.1" id="Layer_1" xmlns="http://www.w3.org/2000/svg" xmlns:xlink="http://www.w3.org/1999/xlink" viewBox="0 0 100 100" >
<g>
	<g>
		<g>
			<g>
				<circle fill="#65A844" cx="50" cy="50" r="50"/>
			</g>
		</g>
	</g>
	<g>
		<path fill="#E9DEC3" d="M71.349,31.751c-5.151-6.021-12.801-9.844-21.348-9.844c-15.515,0-28.093,12.578-28.093,28.093
			c0,8.794,4.044,16.641,10.37,21.791c4.834,3.938,11.002,6.3,17.723,6.3c15.515,0,28.091-12.576,28.091-28.091
			C78.092,43.03,75.551,36.661,71.349,31.751z"/>
		<g>
			<path fill="#F6EDDC" d="M62.988,63.165c8.822-8.82,11.708-21.134,8.401-31.414c-5.153-6.021-12.801-9.844-21.348-9.844
				c-15.515,0-28.093,12.578-28.093,28.093c0,8.794,4.043,16.641,10.37,21.791C42.442,74.731,54.379,71.774,62.988,63.165z"/>
		</g>
		<g>
			<g>
				<path fill="#8E7D5C" d="M73.454,34.547c-0.249-0.378-0.509-0.746-0.775-1.11c-4.663,1.82-14.021,4.993-22.6,4.993
					c-8.252,0-17.752-2.934-22.913-4.782c-0.264,0.369-0.518,0.743-0.765,1.124c5.17,1.867,15.063,4.974,23.678,4.974
					C59.047,39.746,68.803,36.38,73.454,34.547z"/>
			</g>
			<g>
				<circle fill="#3A3A39" cx="63.492" cy="34.233" r="1.135"/>
				<circle fill="#3A3A39" cx="63.492" cy="39.525" r="1.135"/>
				<g>
					<path fill="#DC3735" d="M63.62,40.056c-0.123,0-0.247-0.034-0.358-0.105c-0.306-0.199-0.393-0.606-0.196-0.911
						c0.216-0.333,0.774-1.352,0.774-2.058c0-0.728-0.589-1.946-0.796-2.316c-0.178-0.317-0.063-0.718,0.254-0.896
						c0.316-0.178,0.718-0.065,0.896,0.253c0.099,0.178,0.964,1.76,0.964,2.959c0,1.221-0.883,2.619-0.985,2.776
						C64.047,39.952,63.836,40.056,63.62,40.056z"/>
				</g>
			</g>
			<g>
				<circle fill="#3A3A39" cx="36.032" cy="34.531" r="1.135"/>
				<circle fill="#3A3A39" cx="36.032" cy="39.823" r="1.135"/>
				<g>
					<path fill="#DC3735" d="M36.16,40.353c-0.123,0-0.247-0.034-0.358-0.105c-0.306-0.199-0.393-0.606-0.196-0.911
						c0.216-0.333,0.773-1.352,0.773-2.058c0-0.728-0.587-1.946-0.794-2.316c-0.178-0.317-0.063-0.718,0.254-0.896
						c0.316-0.178,0.718-0.065,0.896,0.253c0.099,0.178,0.962,1.76,0.962,2.959c0,1.221-0.883,2.619-0.984,2.776
						C36.587,40.248,36.376,40.353,36.16,40.353z"/>
				</g>
			</g>
			<g>
				<circle fill="#3A3A39" cx="69.92" cy="32.564" r="1.135"/>
				<circle fill="#3A3A39" cx="69.92" cy="37.855" r="1.135"/>
				<g>
					<path fill="#DC3735" d="M70.049,38.386c-0.123,0-0.248-0.034-0.358-0.105c-0.306-0.199-0.393-0.606-0.196-0.911
						c0.216-0.333,0.773-1.352,0.773-2.06c0-0.726-0.589-1.944-0.794-2.315c-0.178-0.317-0.065-0.718,0.253-0.898
						c0.317-0.176,0.72-0.063,0.898,0.254c0.099,0.178,0.962,1.76,0.962,2.957c0,1.223-0.883,2.621-0.984,2.777
						C70.476,38.281,70.264,38.386,70.049,38.386z"/>
				</g>
			</g>
			<g>
				<circle fill="#3A3A39" cx="29.626" cy="32.751" r="1.135"/>
				<path fill="#3A3A39" d="M30.761,38.044c0,0.278-0.1,0.531-0.265,0.728c-0.208,0.248-0.521,0.407-0.872,0.407
					c-0.626,0-1.135-0.509-1.135-1.135c0-0.628,0.509-1.135,1.135-1.135C30.253,36.909,30.761,37.417,30.761,38.044z"/>
				<g>
					<path fill="#DC3735" d="M29.755,38.574c-0.123,0-0.248-0.034-0.358-0.105c-0.306-0.199-0.393-0.606-0.196-0.911
						c0.214-0.333,0.773-1.352,0.773-2.06c0-0.726-0.589-1.944-0.794-2.315c-0.179-0.317-0.065-0.718,0.253-0.898
						c0.317-0.176,0.72-0.063,0.898,0.254c0.099,0.178,0.962,1.76,0.962,2.957c0,1.223-0.883,2.621-0.984,2.777
						C30.182,38.47,29.969,38.574,29.755,38.574z"/>
				</g>
			</g>
			<g>
				<circle fill="#3A3A39" cx="49.277" cy="36.156" r="1.135"/>
				<circle fill="#3A3A39" cx="49.277" cy="41.448" r="1.135"/>
				<g>
					<path fill="#DC3735" d="M49.406,41.98c-0.123,0-0.247-0.034-0.358-0.107c-0.306-0.197-0.393-0.606-0.196-0.911
						c0.216-0.333,0.773-1.352,0.773-2.058c0-0.726-0.587-1.946-0.794-2.316c-0.178-0.317-0.065-0.718,0.253-0.896
						c0.317-0.178,0.72-0.063,0.898,0.254c0.099,0.178,0.962,1.76,0.962,2.957c0,1.221-0.883,2.619-0.984,2.776
						C49.833,41.874,49.621,41.98,49.406,41.98z"/>
				</g>
			</g>
			<g>
				<circle fill="#3A3A39" cx="56.868" cy="35.762" r="1.135"/>
				<circle fill="#3A3A39" cx="56.868" cy="41.054" r="1.135"/>
				<g>
					<path fill="#DC3735" d="M56.998,41.584c-0.123,0-0.248-0.034-0.358-0.105c-0.307-0.199-0.393-0.606-0.196-0.911
						c0.214-0.333,0.773-1.352,0.773-2.06c0-0.726-0.589-1.944-0.794-2.315c-0.179-0.317-0.065-0.72,0.253-0.898
						c0.316-0.176,0.72-0.063,0.898,0.254c0.099,0.178,0.962,1.76,0.962,2.957c0,1.223-0.883,2.621-0.985,2.777
						C57.423,41.479,57.212,41.584,56.998,41.584z"/>
				</g>
			</g>
			<g>
				<circle fill="#3A3A39" cx="41.872" cy="35.762" r="1.135"/>
				<circle fill="#3A3A39" cx="41.872" cy="41.054" r="1.135"/>
				<g>
					<path fill="#DC3735" d="M41.999,41.584c-0.122,0-0.247-0.034-0.358-0.105c-0.306-0.199-0.392-0.606-0.196-0.911
						c0.216-0.333,0.774-1.352,0.774-2.06c0-0.726-0.589-1.944-0.796-2.315c-0.178-0.317-0.063-0.72,0.254-0.898
						c0.317-0.176,0.718-0.063,0.898,0.254c0.099,0.178,0.962,1.76,0.962,2.957c0,1.223-0.885,2.621-0.985,2.777
						C42.428,41.479,42.215,41.584,41.999,41.584z"/>
				</g>
			</g>
		</g>
		<g>
			<g>
				<path fill="#8E7D5C" d="M48.952,59.993c-8.578,0-17.876,3.079-22.739,4.952c0.241,0.381,0.493,0.754,0.751,1.123
					c4.836-1.846,13.771-4.757,21.989-4.757c8.773,0,18.952,3.313,23.831,5.115c0.265-0.367,0.521-0.741,0.77-1.121
					C68.714,63.505,58.108,59.993,48.952,59.993z"/>
			</g>
			<g>
				<circle fill="#3A3A39" cx="36.031" cy="65.309" r="1.135"/>
				<circle fill="#3A3A39" cx="36.031" cy="60.017" r="1.135"/>
				<g>
					<path fill="#DC3735" d="M35.902,59.486c0.123,0,0.247,0.034,0.358,0.107c0.307,0.197,0.393,0.605,0.196,0.911
						c-0.214,0.333-0.773,1.352-0.773,2.058c0,0.726,0.589,1.946,0.794,2.315c0.179,0.317,0.063,0.72-0.253,0.898
						c-0.317,0.178-0.72,0.065-0.898-0.254c-0.099-0.176-0.962-1.758-0.962-2.957c0-1.223,0.883-2.619,0.985-2.776
						C35.475,59.592,35.687,59.486,35.902,59.486z"/>
				</g>
			</g>
			<g>
				<circle fill="#3A3A39" cx="63.751" cy="65.407" r="1.135"/>
				<circle fill="#3A3A39" cx="63.751" cy="60.116" r="1.135"/>
				<g>
					<path fill="#DC3735" d="M63.623,59.585c0.123,0,0.247,0.034,0.358,0.107c0.306,0.197,0.393,0.605,0.196,0.911
						c-0.216,0.333-0.773,1.352-0.773,2.058c0,0.726,0.587,1.946,0.794,2.315c0.178,0.317,0.063,0.72-0.254,0.898
						c-0.316,0.178-0.718,0.065-0.896-0.254c-0.099-0.176-0.962-1.758-0.962-2.957c0-1.223,0.883-2.619,0.984-2.776
						C63.196,59.691,63.408,59.585,63.623,59.585z"/>
				</g>
			</g>
			<g>
				<circle fill="#3A3A39" cx="29.801" cy="67.176" r="1.135"/>
				<circle fill="#3A3A39" cx="29.801" cy="61.886" r="1.135"/>
				<g>
					<path fill="#DC3735" d="M29.673,61.353c0.123,0,0.247,0.036,0.358,0.107c0.306,0.197,0.392,0.606,0.196,0.911
						c-0.216,0.333-0.774,1.352-0.774,2.058c0,0.726,0.589,1.946,0.796,2.315c0.178,0.319,0.063,0.72-0.254,0.898
						c-0.316,0.178-0.718,0.065-0.898-0.254c-0.099-0.176-0.962-1.758-0.962-2.957c0-1.221,0.885-2.619,0.985-2.776
						C29.245,61.46,29.457,61.353,29.673,61.353z"/>
				</g>
			</g>
			<g>
				<circle fill="#3A3A39" cx="70.3" cy="67.297" r="1.135"/>
				<path fill="#3A3A39" d="M69.165,62.006c0-0.278,0.1-0.531,0.264-0.728c0.21-0.248,0.523-0.407,0.872-0.407
					c0.628,0,1.135,0.509,1.135,1.135c0,0.628-0.508,1.135-1.135,1.135S69.165,62.633,69.165,62.006z"/>
				<g>
					<path fill="#DC3735" d="M70.172,61.475c0.123,0,0.247,0.034,0.358,0.105c0.306,0.199,0.392,0.606,0.196,0.911
						c-0.216,0.333-0.774,1.352-0.774,2.06c0,0.726,0.589,1.944,0.796,2.315c0.178,0.317,0.063,0.718-0.254,0.898
						c-0.316,0.176-0.718,0.063-0.898-0.254c-0.099-0.178-0.962-1.76-0.962-2.957c0-1.223,0.885-2.621,0.985-2.777
						C69.745,61.58,69.956,61.475,70.172,61.475z"/>
				</g>
			</g>
			<g>
				<circle fill="#3A3A39" cx="49.754" cy="63.583" r="1.135"/>
				<circle fill="#3A3A39" cx="49.754" cy="58.291" r="1.135"/>
				<g>
					<path fill="#DC3735" d="M49.626,57.761c0.122,0,0.247,0.034,0.358,0.105c0.306,0.197,0.392,0.606,0.196,0.911
						c-0.216,0.333-0.774,1.352-0.774,2.058c0,0.728,0.589,1.946,0.796,2.316c0.178,0.317,0.063,0.72-0.254,0.898
						c-0.316,0.176-0.718,0.063-0.898-0.254c-0.097-0.178-0.962-1.76-0.962-2.959c0-1.221,0.885-2.619,0.985-2.774
						C49.199,57.866,49.409,57.761,49.626,57.761z"/>
				</g>
			</g>
			<g>
				<circle fill="#3A3A39" cx="42.853" cy="63.682" r="1.135"/>
				<circle fill="#3A3A39" cx="42.853" cy="58.391" r="1.135"/>
				<g>
					<path fill="#DC3735" d="M42.724,57.859c0.123,0,0.247,0.036,0.358,0.107c0.306,0.197,0.393,0.606,0.196,0.911
						c-0.216,0.333-0.774,1.352-0.774,2.058c0,0.726,0.589,1.946,0.796,2.315c0.178,0.319,0.063,0.72-0.254,0.898
						c-0.316,0.178-0.718,0.065-0.896-0.253c-0.099-0.178-0.964-1.76-0.964-2.959c0-1.221,0.885-2.619,0.985-2.776
						C42.297,57.966,42.508,57.859,42.724,57.859z"/>
				</g>
			</g>
			<g>
				<circle fill="#3A3A39" cx="56.822" cy="63.757" r="1.135"/>
				<circle fill="#3A3A39" cx="56.822" cy="58.466" r="1.135"/>
				<g>
					<path fill="#DC3735" d="M56.694,57.935c0.122,0,0.247,0.034,0.358,0.105c0.306,0.199,0.392,0.606,0.196,0.911
						c-0.216,0.333-0.774,1.352-0.774,2.06c0,0.726,0.589,1.944,0.796,2.315c0.178,0.317,0.063,0.72-0.254,0.898
						c-0.317,0.176-0.718,0.063-0.898-0.254c-0.099-0.178-0.962-1.76-0.962-2.957c0-1.223,0.885-2.621,0.985-2.777
						C56.265,58.04,56.478,57.935,56.694,57.935z"/>
				</g>
			</g>
		</g>
	</g>
</g>
</svg>
