<svg version="1.1" id="Layer_1" xmlns="http://www.w3.org/2000/svg" xmlns:xlink="http://www.w3.org/1999/xlink" viewBox="0 0 100 100" >
<g>
	<g>
		<g>
			<circle fill="#49A0AE" cx="50" cy="50" r="50"/>
		</g>
	</g>
	<g>
		<g>
			<g>
				<g opacity="0.8">
					<path fill="#C4E7ED" d="M72.311,21.3l-39.96,20.252c-2.854,1.446-6.77,3.193-6.74,6.756c-0.009,0.004,0.05,0.637-0.231,1.303
						c-0.281,0.666-0.715,1.124-0.715,1.124c-0.846,0.429-2.729,1.385-3.241,1.693c-1.798,1.084-1.498,3.519-0.327,5.83
						c1.229,2.424,3.213,4.085,5.02,3.239c0.527-0.247,2.385-1.185,3.193-1.594c0,0,0.702-0.308,1.196-0.178
						c0.496,0.13,1.162,0.508,1.162,0.508c0.002-0.002,0.003-0.003,0.003-0.003c3.049,2.361,7.648-0.118,9.588-1.101l39.958-20.252
						c1.618-0.819,3.489-3.431-0.403-11.108C76.773,19.787,73.928,20.481,72.311,21.3z"/>
				</g>
				<g>
					<path fill="#D6EFF2" d="M21.096,58.257c1.229,2.424,3.213,4.085,5.02,3.239c0.527-0.247,2.385-1.185,3.193-1.594
						c0,0,0.702-0.308,1.196-0.178c0.496,0.13,1.162,0.508,1.162,0.508c0.002-0.002,0.003-0.003,0.003-0.003
						c3.049,2.361,7.648-0.118,9.588-1.101l39.959-20.251c1.618-0.819,3.489-3.431-0.403-11.108
						c-1.618-3.197-18.715,5.266-30.153,11.218C33.539,47.898,20.394,56.872,21.096,58.257z"/>
				</g>
				<g>
					<path fill="#B5DDE1" d="M67.106,44.71L36.865,57.113c-2.705,1.37-1.944-1.333-4.78-0.231c-0.008,0.003-4.735,1.928-4.735,1.928
						c-0.802,0.407-1.554-0.461-2.038-0.17c-1.703,1.027-2.214,0.868-1.104,3.058c1.164,2.297,0.92-0.132,2.633-0.935
						c0.5-0.234,1.784-0.972,2.549-1.359c0,0,1.047-0.166,1.515-0.042c0.47,0.123,1.101,0.479,1.101,0.479
						c0.002-0.001,0.002-0.002,0.002-0.002c2.891,2.236,7.251-0.113,9.087-1.044l37.863-19.188
						C80.488,38.835,68.64,43.934,67.106,44.71z"/>
				</g>
				<g opacity="0.5">
					<path fill="#73BFCB" d="M21.677,53.234c-1.566,0.794-1.254,2.944-0.274,4.877c1.028,2.029,2.712,3.466,4.201,2.711
						c0.78-0.396,0.954-1.746-0.488-4.592C23.691,53.419,22.421,52.856,21.677,53.234z"/>
				</g>
				<g>
					<g>
						<path fill="#67B8CB" d="M24.665,50.734c-0.194,0.099-0.445,0.226-0.72,0.366c0,0,2.17,1.472,3.412,3.921
							c1.241,2.451,1.234,5.246,1.234,5.246c0.278-0.14,0.529-0.267,0.72-0.364c0,0,0.036-0.016,0.092-0.036
							c0,0,0.284-2.25-1.213-5.206c-1.498-2.954-3.455-4.007-3.455-4.007C24.691,50.707,24.665,50.734,24.665,50.734z"/>
					</g>
				</g>
				<g>
					<path fill="#67B8CB" d="M65.485,46.872l-14.878,7.54c0,0-1.002-4.984-3.409-9.733c-2.406-4.749-5.487-7.822-5.487-7.822
						l14.877-7.54c0,0,2.723,2.366,5.385,7.619C64.636,42.191,65.485,46.872,65.485,46.872z"/>
				</g>
			</g>
			<g>
				<g>
					<path fill="#C4E7ED" d="M25.259,73.807c0,0-1.764,4.148-1.606,5.661c0.126,1.201,1.201,2.071,2.402,1.946
						c1.198-0.125,2.071-1.199,1.944-2.401C27.854,77.609,25.259,73.807,25.259,73.807z"/>
				</g>
				<g>
					<path fill="#FFFFFF" d="M25.806,80.936c1.44-0.181,1.724-0.555,1.709-2.108c0,0-0.33,0.643-0.751,1.217
						C26.383,80.569,25.806,80.936,25.806,80.936z"/>
				</g>
			</g>
			<g>
				<g>
					<path fill="#C4E7ED" d="M24.947,64.252c0,0-1.938,3.495-1.938,4.844c0,1.069,0.868,1.937,1.938,1.937
						c1.069,0,1.937-0.868,1.937-1.937C26.883,67.844,24.947,64.252,24.947,64.252z"/>
				</g>
				<g>
					<path fill="#FFFFFF" d="M24.772,70.59c1.288-0.027,1.573-0.332,1.704-1.702c0,0-0.351,0.537-0.775,1.005
						C25.315,70.319,24.772,70.59,24.772,70.59z"/>
				</g>
			</g>
		</g>
	</g>
</g>
</svg>
