<svg version="1.1" id="Layer_1" xmlns="http://www.w3.org/2000/svg" xmlns:xlink="http://www.w3.org/1999/xlink" viewBox="0 0 100 100" >
<g>
	<g>
		<g>
			<circle fill="#9CBDBF" cx="50" cy="50" r="50"/>
		</g>
	</g>
	<g>
		<path fill="#626463" d="M52.507,51.258L30.964,72.8l-3.546-2.788L49.338,48.09L52.507,51.258z"/>
		<path fill="#4C4D4D" d="M31.502,73.196c-5.67,6.809-13.611,3.97-15.028-3.116c-0.557-2.783,3.685-6.526,5.104-3.97
			c-1.134,9.642,5.638,3.366,5.638,3.366s1.794,0.316,2.894,1.414C31.212,71.991,31.502,73.196,31.502,73.196z"/>
		<g>
			<path fill="#E84849" d="M72.559,27.553c24.783,24.784,0.013,55.61,0.013,55.61c-0.346-9.034-8.896-17.582-17.582-17.582
				c0,0-1.875-7.446-7.306-12.876c-5.429-5.429-12.19-6.623-12.19-6.623c0.447-8.241-7.477-16.956-17.35-17.35
				C18.143,28.735,47.776,2.771,72.559,27.553z"/>
			<path fill="#F06668" d="M72.559,27.553c4.734,4.735-13.924,33.415-17.571,38.029c0,0-1.875-7.446-7.306-12.876
				c-5.429-5.429-12.19-6.623-12.19-6.623C39.699,42.033,69.078,24.073,72.559,27.553z"/>
			<path fill="#4B4A4B" d="M74.271,29.923c-0.72,0.723-2.219,0.393-3.347-0.734c-1.127-1.129-1.457-2.627-0.737-3.347
				c0.722-0.72,2.219-0.392,3.346,0.737C74.662,27.708,74.991,29.204,74.271,29.923z"/>
		</g>
	</g>
</g>
</svg>
