<svg version="1.1" id="Layer_1" xmlns="http://www.w3.org/2000/svg" xmlns:xlink="http://www.w3.org/1999/xlink" viewBox="0 0 100 100" >
<g>
	<g>
		<circle fill="#F2BE3E" cx="50" cy="50" r="50"/>
	</g>
	<g>
		<polygon fill="#F7D98B" points="78.22,21.115 37.123,43.905 35.016,45.875 55.288,65.169 56.741,63.528 		"/>
		<polygon fill="#626463" points="78.345,20.88 60.412,30.849 68.994,39.433 		"/>
		<g>
			<path fill="#E84849" d="M57.109,60.531l-6.111,0.35L21.08,90.774c1.69,1.2,3.451,2.305,5.286,3.292l28.922-28.897L57.109,60.531z
				"/>
			<path fill="#E84849" d="M13.974,84.652l30.414-30.385l0.272-6.185l-5.953,0.507L8.861,78.409
				C10.397,80.627,12.108,82.713,13.974,84.652z"/>
			<path fill="#F06668" d="M38.706,48.588l0.838-5.624l-4.064,2.394l-29.1,29.074c0.767,1.366,1.595,2.693,2.482,3.977
				L38.706,48.588z"/>
			<path fill="#F06668" d="M21.079,90.775l29.918-29.894l-0.079-6.541l-6.531-0.074L13.974,84.652
				C16.143,86.907,18.521,88.957,21.079,90.775z"/>
		</g>
	</g>
</g>
</svg>
